<svg width="29" height="109" viewBox="0 0 29 109" fill="none" xmlns="http://www.w3.org/2000/svg">
<path d="M5.18018 94.0562L14.9302 103.806L24.6802 94.0562L14.9302 84.3062L5.18018 94.0562ZM0.930175 94.0561L13.4302 81.5562L13.4302 68.0562L16.4302 68.0562L16.4302 81.5562L28.9302 94.0562L14.9302 108.056L0.930175 94.0561Z" fill="#FF5709"/>
<path d="M24.6802 14.0056L14.9302 4.25561L5.18018 14.0056L14.9302 23.7556L24.6802 14.0056ZM28.9302 14.0056L16.4302 26.5056L16.4302 40.0056L13.4302 40.0056L13.4302 26.5056L0.930184 14.0056L14.9302 0.00561401L28.9302 14.0056Z" fill="white"/>
<path d="M16.4302 62.5309L13.4302 62.5309L13.4302 59.5309L16.4302 59.5309L16.4302 62.5309Z" fill="#FF5709"/>
<path d="M16.4302 55.5309L13.4302 55.5309L13.4302 52.5309L16.4302 52.5309L16.4302 55.5309Z" fill="#FF5709"/>
<path d="M16.4302 48.5309L13.4302 48.5309L13.4302 45.5309L16.4302 45.5309L16.4302 48.5309Z" fill="#FF5709"/>
</svg>
